<svg width="403" height="100" viewBox="0 0 403 100" fill="none" xmlns="http://www.w3.org/2000/svg">
<path d="M164.699 18.2545V15.875H160.483V18.2545C153.284 18.4051 148.193 21.3268 148.193 28.134C148.193 34.9714 153.284 37.8931 160.483 37.9834V40.363H164.699V37.9834C171.898 37.8931 176.989 34.9714 176.989 28.134C176.989 21.3268 171.898 18.4051 164.699 18.2545ZM160.483 34.3087C155.754 34.2184 152.591 32.4413 152.591 28.134C152.591 23.8569 155.754 22.0497 160.483 21.9593V34.3087ZM164.699 34.3087V21.9292C169.428 22.0196 172.591 23.8268 172.591 28.1039C172.591 32.4413 169.428 34.1883 164.699 34.3087Z" fill="black"/>
<path d="M130.181 40.333C129.91 40.333 129.669 40.333 129.398 40.3029C129.157 40.3029 129.036 40.2728 128.856 40.2125V36.6583C129.036 36.6884 129.247 36.6884 129.488 36.7186C129.729 36.7186 129.97 36.7487 130.241 36.7487C130.753 36.7487 131.175 36.7186 131.536 36.6583C131.898 36.5981 132.199 36.4475 132.47 36.2668C132.711 36.086 132.952 35.8149 133.163 35.4836C133.374 35.1523 133.615 34.6402 133.856 34.1884L123.494 16.2969H128.042L135.934 30.333L142.5 16.2969H146.838L137.862 34.9415C137.41 35.8752 136.928 36.7186 136.476 37.3812C135.994 38.074 135.482 38.6162 134.88 39.068C134.277 39.4896 133.615 39.821 132.862 40.0017C132.078 40.2125 131.205 40.333 130.181 40.333Z" fill="black"/>
<path d="M209.879 39.9415V16.2969H215.481L222.409 34.0378L229.367 16.2969H234.819V39.9415H230.632V23.4957L223.975 40.0017H220.722L214.066 23.4957V39.9415H209.879Z" fill="black"/>
<path d="M267.5 39.9415V16.2969H271.657V26.2065H274.217L283.404 16.2969H288.494L277.831 27.5017L288.855 39.9415H283.404L274.217 29.3692H271.657V39.9415H267.5Z" fill="black"/>
<path d="M150.934 76.5352V52.8906H155.301V62.6195H167.861V52.8906H172.199V76.5352H167.861V66.1436H155.301V76.5352H150.934Z" fill="black"/>
<path d="M178.373 76.5352V52.8906H182.56V71.0533L194.247 52.8906H199.397V76.5352H195.21V58.4027L183.554 76.5352H178.373Z" fill="black"/>
<path d="M181.867 39.9415V16.2969H186.054V34.4294L197.711 16.2969H202.891V39.9415H198.705V21.8089L187.018 39.9415H181.867Z" fill="black"/>
<path d="M301.928 76.5352V52.8906H306.114V71.0533L317.771 52.8906H322.952V76.5352H318.765V58.4027L307.078 76.5352H301.928Z" fill="black"/>
<path d="M293.012 39.9415V16.2969H297.198V34.4294L308.885 16.2969H314.036V39.9415H309.879V21.8089L298.192 39.9415H293.012Z" fill="black"/>
<path d="M320.182 39.937V16.2925H324.368V34.425L336.055 16.2925H341.236V39.937H337.049V21.8045L325.362 39.937H320.182ZM335.272 13.5816H326.025V10.9611L335.272 8.88281V13.5816Z" fill="black"/>
<path d="M205.332 76.5352V52.8906H215.181C216.657 52.8906 217.953 53.0412 219.007 53.3424C220.061 53.6436 220.934 54.0653 221.627 54.6075C222.32 55.1497 222.832 55.8123 223.163 56.5954C223.495 57.3786 223.645 58.2521 223.645 59.1858C223.645 60.3906 223.314 61.4448 222.621 62.3183C221.928 63.1918 221.055 63.8244 219.971 64.1858C221.446 64.487 222.621 65.1195 223.465 66.0834C224.308 67.0171 224.73 68.2822 224.73 69.8485C224.73 70.8424 224.549 71.746 224.218 72.5593C223.886 73.3725 223.344 74.0954 222.651 74.6677C221.928 75.24 221.025 75.7219 219.88 76.0232C218.736 76.3545 217.38 76.5051 215.814 76.5051H205.332V76.5352ZM209.398 62.8304H214.76C215.633 62.8304 216.386 62.74 216.989 62.5894C217.591 62.4388 218.073 62.1979 218.434 61.9268C218.796 61.6256 219.067 61.2942 219.218 60.8726C219.368 60.481 219.428 60.0292 219.428 59.5472C219.428 59.0653 219.368 58.6135 219.218 58.1918C219.067 57.8003 218.826 57.4388 218.434 57.1677C218.073 56.8966 217.591 56.6858 216.989 56.5352C216.416 56.3846 215.663 56.3244 214.73 56.3244H209.368V62.8304H209.398ZM209.398 73.1316H215.513C216.507 73.1316 217.35 73.0412 218.013 72.8906C218.675 72.74 219.218 72.4991 219.609 72.1979C220.001 71.8966 220.302 71.5051 220.483 71.0533C220.663 70.6015 220.724 70.0894 220.724 69.5472C220.724 68.975 220.633 68.4629 220.483 68.0412C220.302 67.5894 220.031 67.228 219.609 66.8966C219.218 66.5954 218.675 66.3545 217.983 66.1738C217.29 65.993 216.446 65.9328 215.453 65.9328H209.428V73.1316H209.398Z" fill="black"/>
<path d="M229.549 76.5352V52.8906H246.446V56.3244H233.615V62.74H245.362V66.0533H233.615V73.1316H246.446V76.5352H229.549Z" fill="black"/>
<path d="M352.078 76.5352V52.8906H369.006V56.3244H356.144V62.74H367.921V66.0533H356.144V73.1316H369.006V76.5352H352.078Z" fill="black"/>
<path d="M251.838 76.5352V52.8906H260.964C262.651 52.8906 264.127 53.0713 265.392 53.4328C266.657 53.7942 267.681 54.3063 268.525 54.9689C269.338 55.6316 269.97 56.4147 270.362 57.3485C270.754 58.2822 270.964 59.3063 270.964 60.4207C270.964 61.5352 270.754 62.5593 270.362 63.493C269.97 64.4268 269.338 65.2099 268.525 65.8726C267.711 66.5352 266.657 67.0473 265.392 67.4087C264.127 67.7701 262.651 67.9509 260.964 67.9509H255.904V76.5352H251.838ZM255.904 64.4569H260.784C263.043 64.4569 264.639 64.0954 265.543 63.4027C266.446 62.6798 266.898 61.7159 266.898 60.4509C266.898 59.1858 266.446 58.1918 265.543 57.4991C264.639 56.7762 263.043 56.4448 260.784 56.4448H255.904V64.4569Z" fill="black"/>
<path d="M335.421 76.5352V56.4147H326.957V52.8906H348.343V56.4147H339.849V76.5352H335.421Z" fill="black"/>
<path d="M381.024 76.5352V56.4147H372.561V52.8906H393.946V56.4147H385.452V76.5352H381.024Z" fill="black"/>
<path d="M286.355 72.559C281.626 72.559 278.825 68.9446 278.825 64.2759C278.825 59.6072 281.626 55.9928 286.355 55.9928C290.391 55.9928 292.349 58.553 293.162 60.3L297.048 58.3421C295.572 55.3602 292.228 52.2578 286.385 52.2578C279.066 52.2578 274.518 57.1072 274.518 64.2759C274.518 71.4446 279.096 76.294 286.385 76.294C292.228 76.294 295.572 73.1915 297.048 70.2096L293.162 68.2518C292.379 69.9988 290.391 72.559 286.355 72.559Z" fill="black"/>
<path d="M252.139 36.3871C247.41 36.3871 244.609 32.7727 244.609 28.104C244.609 23.4353 247.41 19.8209 252.139 19.8209C256.205 19.8209 258.163 22.4112 258.946 24.1582L262.832 22.2004C261.356 19.2185 258.012 16.0859 252.169 16.0859C244.85 16.0859 240.271 20.9353 240.271 28.104C240.271 35.2727 244.85 40.1221 252.169 40.1221C258.043 40.1221 261.386 36.9896 262.832 34.0076L258.946 32.0498C258.163 33.7968 256.205 36.3871 252.139 36.3871Z" fill="black"/>
<path d="M130.181 76.9904C129.91 76.9904 129.669 76.9904 129.398 76.9603C129.157 76.9603 129.036 76.9302 128.856 76.8699V73.3157C129.036 73.3458 129.247 73.3458 129.488 73.3759C129.729 73.3759 129.97 73.4061 130.241 73.4061C130.753 73.4061 131.175 73.3759 131.536 73.3157C131.898 73.2555 132.199 73.1049 132.47 72.9241C132.711 72.7434 132.952 72.4723 133.163 72.141C133.374 71.8097 133.615 71.2976 133.856 70.8458L123.494 52.9844H128.042L135.934 67.0205L142.5 52.9844H146.838L137.862 71.629C137.41 72.5627 136.928 73.4061 136.476 74.0687C135.994 74.7615 135.482 75.3037 134.88 75.7555C134.277 76.1771 133.615 76.5085 132.862 76.6892C132.078 76.9 131.205 76.9904 130.181 76.9904Z" fill="black"/>
<path d="M98.4031 10.4234V58.4053C98.4031 59.6704 97.7103 60.8149 96.5958 61.3571L37.8308 91.0559C36.7464 91.5981 35.4513 90.8149 35.4513 89.6101V75.6342C35.4513 74.5499 35.873 73.5258 36.5958 72.7426L48.2224 60.4535H9.81874C8.91512 60.4535 8.16211 59.7005 8.16211 58.7969V10.3932C8.16211 8.91735 9.96934 8.19445 10.9934 9.27879L53.4633 54.7607L95.5717 9.30891C96.5657 8.22457 98.4031 8.94747 98.4031 10.4234Z" fill="#5300D6"/>
</svg>
